inDegrees=no
num_controls=7
num_derivatives=13
num_iterations=180
num_multipliers=7
num_parameters=0
num_slacks=7
num_states=26
objective=6.530874
objective_accelerations=0.564235
objective_balance=0.029786
objective_effort=0.538553
objective_height=5.306911
objective_ligament=0.091390
solver_duration=1540.064856
status=Solve_Succeeded
success=true
DataType=double
version=3
OpenSimVersion=4.4-2022-07-23-0e9fedc
endheader
time	/jointset/ground_pelvis/pelvis_tilt/value	/jointset/ground_pelvis/pelvis_tx/value	/jointset/ground_pelvis/pelvis_ty/value	/jointset/hip_r/hip_flexion_r/value	/jointset/hip_r/hip_adduction_r/value	/jointset/hip_r/hip_rotation_r/value	/jointset/back/lumbar_extension/value	/jointset/patellofemoral_r/patellar_flexion_r/value	/jointset/knee_r/knee_flexion_r/value	/jointset/knee_r/knee_adduction_r/value	/jointset/knee_r/knee_rotation_r/value	/jointset/ankle_r/ankle_angle_r/value	/jointset/subtalar_r/subtalar_angle_r/value	/jointset/ground_pelvis/pelvis_tilt/speed	/jointset/ground_pelvis/pelvis_tx/speed	/jointset/ground_pelvis/pelvis_ty/speed	/jointset/hip_r/hip_flexion_r/speed	/jointset/hip_r/hip_adduction_r/speed	/jointset/hip_r/hip_rotation_r/speed	/jointset/back/lumbar_extension/speed	/jointset/patellofemoral_r/patellar_flexion_r/speed	/jointset/knee_r/knee_flexion_r/speed	/jointset/knee_r/knee_adduction_r/speed	/jointset/knee_r/knee_rotation_r/speed	/jointset/ankle_r/ankle_angle_r/speed	/jointset/subtalar_r/subtalar_angle_r/speed	/forceset/tau_hip_flexion_r	/forceset/tau_hip_adduction_r	/forceset/tau_hip_rotation_r	/forceset/tau_knee_flexion_r	/forceset/tau_ankle_angle_r	/forceset/tau_subtalar_angle_r	/forceset/tau_lumbar_extension	lambda_cid13_p0	lambda_cid14_p0	lambda_cid14_p1	lambda_cid14_p2	lambda_cid14_p3	lambda_cid14_p4	lambda_cid14_p5	/jointset/ground_pelvis/pelvis_tilt/accel	/jointset/ground_pelvis/pelvis_tx/accel	/jointset/ground_pelvis/pelvis_ty/accel	/jointset/hip_r/hip_flexion_r/accel	/jointset/hip_r/hip_adduction_r/accel	/jointset/hip_r/hip_rotation_r/accel	/jointset/back/lumbar_extension/accel	/jointset/patellofemoral_r/patellar_flexion_r/accel	/jointset/knee_r/knee_flexion_r/accel	/jointset/knee_r/knee_adduction_r/accel	/jointset/knee_r/knee_rotation_r/accel	/jointset/ankle_r/ankle_angle_r/accel	/jointset/subtalar_r/subtalar_angle_r/accel	gamma_cid13_p0	gamma_cid14_p0	gamma_cid14_p1	gamma_cid14_p2	gamma_cid14_p3	gamma_cid14_p4	gamma_cid14_p5
1	-0.4846197239181662	-0.09299073497098437	0.6752028636549171	1.632627392886556	-0.2292367294555019	-0.06185412451905616	-0.436331433618301	1.162308438562472	1.162308438562808	-0.02933498258183537	0.1745314491541836	0.1986658454279472	0.03833334982238458	-0.002734150904661505	0.002275729403003054	0.01452897992604603	-0.03804416127130011	0.001141029788745821	-0.009628973083281502	4.676568262561813e-05	-0.04915816326368581	-0.04915816326368481	0.002190671950997518	1.278484429063095e-06	-0.009880368707271043	-0.001078176375017879	-0.396170330123864	-0.01548040773142793	0.0124297882547507	-0.3856137230304417	0.1351173065260935	0.006752132825857327	0.3659774494004761	-2.923824446543648	-6.183009608163244	3.413444923756273	-1.870228521936513	8.226931968558159	-797.7845742025962	64.52054051661423	1.99565831603984	0.3458763132347863	1.631193294360739	-5.999085040046138	0.04033589594193819	-0.7112254373755046	-0.01390153734761085	-4.423820576954371	-4.423820576954347	0.4340462989318258	0.009233908535552802	-0.5662605632249784	-0.09041831319994947	1.95873771574515e-10	1.390207366801314e-09	8.042947127990142e-09	7.701536592232638e-09	-1.713688485661061e-09	-1.355813832389982e-09	5.625180103097271e-09
1.01	-0.4845481517141702	-0.09295074339251709	0.675429487702741	1.631948250926664	-0.2292231727746013	-0.06198535313690164	-0.4363308024494897	1.161595944389092	1.161595944389176	-0.02929109372828539	0.1745314465741865	0.1985386465783361	0.03831817643568376	0.01704249155589826	0.005722685864952757	0.03078638481245544	-0.09775918836465364	0.001570431109119094	-0.01661328872398287	7.599578167634043e-05	-0.09332727248708153	-0.09332727248707967	0.00658823008028026	-1.739289480940654e-06	-0.01556492471546631	-0.001957877660529839	-0.3957321973941533	-0.01553010071327121	0.01243902815172443	-0.3854032357508391	0.135220699136523	0.00676683097184324	0.3656323686283666	-2.951735576376041	-6.122301769027704	3.434012402880872	-1.877567626832243	8.170546679835828	-797.3475769783554	64.53939483096785	1.967752359916599	0.3441192741404675	1.621596760371729	-5.953955061156968	0.04426382896252538	-0.6915160219774741	0.01081444228141785	-4.411446291799376	-4.41144629179926	0.4427827157692058	-0.005058522552222689	-0.5703818370570772	-0.08694851446841366	1.783227383088492e-10	3.094831990492141e-09	1.513856993346057e-08	1.404682665574135e-08	-4.84164323072246e-09	-2.990727291166845e-09	9.643299829540936e-09
1.02	-0.4842789960557982	-0.09287627945713726	0.6758184023343474	1.630672709992404	-0.2292053177647228	-0.06218632119006044	-0.4363299831480791	1.160442161084119	1.160442161083958	-0.02920319486427268	0.1745314160360274	0.198354436425155	0.03829416554047951	0.03678253997056133	0.009170200785513819	0.04698709668251806	-0.1573239561450851	0.002000695584590138	-0.02357686014708275	8.439223073551201e-05	-0.1374159895811649	-0.1374159895811621	0.01099267404327196	-4.313151308868222e-06	-0.02128262942127357	-0.002845678075705893	-0.395294064664435	-0.01557979369510753	0.0124482680486598	-0.385192748471237	0.1353240917469538	0.00678152911783884	0.3652872878562643	-2.997224699837978	-6.069216054909535	3.455409237213119	-1.887510865809723	8.117895749618484	-797.0355836379714	64.57040822123507	1.988339506860529	0.345988004957036	1.619854691091375	-5.969033177461715	0.04050852696149972	-0.7070765938552057	-0.01806826734544911	-4.407742151091912	-4.40774215109185	0.4354234656736087	0.009322690951956767	-0.5728903027474148	-0.0920381391327689	2.942292183329866e-10	4.600111679611314e-09	2.160917453980889e-08	2.032157516134526e-08	-7.380809745744987e-09	-4.906220399989831e-09	1.360679897281184e-08
1.03	-0.4838125433235767	-0.0927673331401669	0.6763689798378251	1.628802326345841	-0.2291831718314283	-0.06245678125087679	-0.4363293697563529	1.158847977126232	1.158847977126199	-0.02907116263038593	0.1745313767736843	0.1981128272060679	0.03826120048717166	0.05650905440714604	0.01261950847203777	0.06311279255489506	-0.2167214610477642	0.002428027157157606	-0.0305069373201152	1.703905263060902e-05	-0.18139891400757	-0.1813989140075657	0.01541940099111638	-3.916842754075258e-06	-0.02705012150521285	-0.003750948847650235	-0.3943525412377432	-0.01566351733766286	0.01247125520922716	-0.3848779959720747	0.1355329716896483	0.006790641906827307	0.3645679199062126	-3.060639452718406	-5.956160604558304	3.486758536752326	-1.90118565861894	8.039075260037897	-796.2720033645707	64.60882276683979	1.964964840898051	0.3444670318226131	1.606583940040414	-5.92041218605824	0.04378134502547015	-0.6847422665610227	-0.004255900514989672	-4.390284473070142	-4.390284473069908	0.4471461386774515	-0.004653192934452394	-0.5803150237171459	-0.09030644393790024	4.114975097172248e-10	6.10335723674506e-09	2.807340140943147e-08	2.659560385513382e-08	-9.913968217603848e-09	-6.824576566466351e-09	1.756974076319324e-08
1.04	-0.483148793961226	-0.09262388077006672	0.6770803456809723	1.62633890704237	-0.2291567654078854	-0.06279629588092403	-0.4363300673080059	1.156814620547146	1.156814620547247	-0.02889469336114984	0.1745313312156713	0.1978132157936412	0.03821907574660184	0.07624186599736017	0.01607141141147691	0.07914476461644936	-0.2759310875259296	0.002852793634566714	-0.03738777399449543	-0.0001777964243519982	-0.2252505138201916	-0.2252505138201852	0.0198800811124651	-5.572283867400408e-06	-0.03288306808915331	-0.004677615528100428	-0.3934110178110518	-0.01574724098020959	0.01249424236972385	-0.3845632434729166	0.1357418516323444	0.006799754695828096	0.3638485519561596	-3.142441900445776	-5.85070608245021	3.519018470740061	-1.917566140802053	7.964115966974679	-795.6328196578269	64.65983080726659	1.989598937586434	0.3465070555400558	1.601109928926826	-5.931457492558978	0.03999550792982821	-0.6972284941247665	-0.04356472712089973	-4.381477228335243	-4.381477228335018	0.4422141003744648	0.008912341018335924	-0.5859812027476804	-0.09631732083394839	6.819353887997789e-10	5.859784239238869e-09	3.38991214951227e-08	3.247135645352649e-08	-8.587007541342042e-09	-1.021383605170141e-08	2.110303708833811e-08
1.05	-0.4822879895139657	-0.09244578823401468	0.6779515468911594	1.623284489418288	-0.2291261410928737	-0.0632043498372227	-0.4363322885141226	1.154343331275064	1.154343331275039	-0.02867336794195787	0.17453126854019	0.1974550130523077	0.03816757369013595	0.09588860263782162	0.0195583279134955	0.09507824930199751	-0.3349044746416091	0.003270703532450174	-0.04421176056095852	-0.0001802836091429709	-0.268993129337709	-0.2689931293377192	0.02439816601641228	-7.966712991890891e-06	-0.03876176943759703	-0.005625772971822099	-0.3929488333574691	-0.0157757143964354	0.01252879883778918	-0.384030979253797	0.1358807038959527	0.006826465883799626	0.3637024192567928	-3.243239263280938	-5.777373874452662	3.55627267849492	-1.938141607611317	7.766577700056978	-795.2804239665704	64.70487545623055	1.9476484934962	0.3514673514202311	1.586880756006304	-5.873084592983144	0.04249190283535643	-0.6732969356412321	0.03433345677731876	-4.368522218894907	-4.368522218897509	0.4585868136360569	-0.004958264995922732	-0.5894589392373888	-0.09450070177107045	9.571598174979044e-10	5.56162316190019e-09	3.970488824381608e-08	3.833466292393805e-08	-7.13941814170149e-09	-1.364906126564766e-08	2.462290699269435e-08
1.06	-0.4812316302070635	-0.09223248985216488	0.6789815655517296	1.61964177686865	-0.2290913770444626	-0.06368030629872554	-0.4363319497574085	1.151435042146718	1.15143504214658	-0.02840646544807614	0.1745311533343799	0.1970378944298206	0.03810650291010689	0.1153528379270944	0.02311258057102842	0.1109082546930268	-0.3935900726337173	0.003680740315041153	-0.05096827503678451	0.0003341960434886804	-0.312650485072627	-0.3126504850726548	0.02899549604960811	-1.607834684017145e-05	-0.0446662443198304	-0.00659136024073583	-0.392486648903952	-0.01580418781265443	0.01256335530575098	-0.3834987150346804	0.1360195561595717	0.006853177071784162	0.363556286557356	-3.363783521119003	-5.711715736593206	3.594560404573521	-1.961597344243714	7.572836506384203	-795.0534977947939	64.76317084504494	1.953098667348709	0.3599742866429094	1.580414070023057	-5.873899667844717	0.03842088487134866	-0.6837340759973225	0.05982864036356719	-4.364425271815394	-4.364425271815318	0.4580631262241959	0.007768900073542619	-0.5911359095056299	-0.09980328587234752	1.249037746854422e-09	5.150900605324902e-09	4.547580388634371e-08	4.417693365734455e-08	-5.445501448492231e-09	-1.725609492731843e-08	2.792621876697923e-08
1.07	-0.4799816969757768	-0.09198317051053834	0.6801693688349062	1.615413630566542	-0.2290525722213389	-0.06422348277038198	-0.4363228140597074	1.14809057957826	1.148090579578086	-0.02809313484483093	0.1745309490019886	0.1965617461683186	0.03803570280057116	0.134585994510159	0.02677678792562007	0.1266352940095862	-0.4519916187342709	0.004077324594805782	-0.05765432274695872	0.00168837549643516	-0.3562310849909031	-0.3562310849909375	0.03368979342795295	-2.481924114237793e-05	-0.05055335218779092	-0.007569675356166732	-0.3927010281119988	-0.01575518782782337	0.0126056555710303	-0.3826422263560162	0.135969316830882	0.006917313470868586	0.3641535363547848	-3.504963127211101	-5.719125112422132	3.64029141109658	-1.990789231911786	7.24956163247934	-795.2000675800485	64.81104664180629	1.901253037725197	0.3734682619957017	1.566278446974776	-5.816146196802982	0.03985292297183469	-0.659137851087934	0.2025273980625908	-4.353236120137245	-4.353236120138244	0.4779970845888417	-0.005190308581274099	-0.585991494357934	-0.09698355998923464	1.541801500714044e-09	4.734190736024262e-09	5.124486574662847e-08	5.001808546856994e-08	-3.738482239667614e-09	-2.087226733620859e-08	3.121801149179223e-08
